<svg width="435" height="284" fill="none" xmlns="http://www.w3.org/2000/svg">
	<path d="m379.326 36.315.007-.5h.068l.065.02-.14.48Zm-58.826-23.9.156.475-.025.008-.026.005-.105-.489Zm-17.5 42 .111-.488-.111.487Zm-54.5-16.5.096.49-.096-.49Zm-24.5 8.5.194.46-.194-.46ZM1.438 281.35a.5.5 0 0 1 .9.435l-.9-.435Zm2.684-3.228a.5.5 0 1 1-.897-.441l.897.441Zm.902-4.075a.5.5 0 0 1 .895.447l-.895-.447Zm2.703-3.147a.5.5 0 0 1-.892-.452l.892.452Zm.93-4.016a.5.5 0 1 1 .89.458l-.89-.458Zm2.773-3.168a.5.5 0 1 1-.886-.464l.886.464Zm1.014-4.061a.5.5 0 1 1 .882.47l-.882-.47Zm2.79-3.085a.5.5 0 1 1-.88-.475l.88.475Zm1.042-4a.5.5 0 0 1 .876.482l-.876-.482Zm2.839-3.061a.5.5 0 1 1-.873-.487l.873.487Zm1.127-4.041a.5.5 0 0 1 .87.494l-.87-.494Zm2.876-3.016a.5.5 0 1 1-.866-.499l.866.499Zm1.154-3.977a.5.5 0 0 1 .863.505l-.863-.505Zm2.91-2.962a.5.5 0 0 1-.86-.511l.86.511Zm1.24-4.015a.5.5 0 0 1 .856.517l-.856-.517Zm2.962-2.941a.5.5 0 1 1-.853-.523l.853.523Zm1.266-3.947a.5.5 0 1 1 .848.529l-.848-.529Zm2.983-2.87a.5.5 0 1 1-.845-.534l.845.534Zm1.355-3.981a.499.499 0 1 1 .84.541l-.84-.541Zm3.044-2.859a.5.5 0 0 1-.837-.547l.837.547Zm1.378-3.911a.5.5 0 1 1 .833.552l-.833-.552Zm3.063-2.783a.5.5 0 0 1-.83-.558l.83.558Zm1.468-3.942a.5.5 0 0 1 .825.565l-.825-.565Zm3.125-2.769a.5.5 0 1 1-.821-.571l.82.571Zm1.488-3.868a.499.499 0 1 1 .817.577l-.817-.577Zm3.148-2.7a.5.5 0 0 1-.813-.583l.813.583Zm1.58-3.895a.5.5 0 0 1 .809.589l-.809-.589Zm3.202-2.673a.5.5 0 0 1-.804-.594l.804.594Zm1.597-3.817a.5.5 0 1 1 .8.6l-.8-.6Zm3.24-2.622a.5.5 0 0 1-.796-.607l.795.607Zm1.69-3.84a.5.5 0 1 1 .79.612l-.79-.612Zm3.273-2.569a.5.5 0 1 1-.785-.618l.785.618Zm1.704-3.759a.5.5 0 0 1 .782.625l-.781-.625Zm3.337-2.548a.5.5 0 0 1-.777-.63l.777.63Zm1.797-3.777a.5.5 0 0 1 .772.636l-.772-.636Zm3.341-2.456a.5.5 0 1 1-.767-.642l.767.642Zm1.832-3.722a.501.501 0 0 1 .762.648l-.762-.648Zm3.416-2.448a.5.5 0 1 1-.756-.654l.756.654Zm1.9-3.705a.5.5 0 0 1 .752.66l-.751-.66Zm3.401-2.335a.5.5 0 1 1-.746-.665l.746.665Zm1.985-3.704a.5.5 0 0 1 .741.671l-.741-.671Zm3.475-2.322a.5.5 0 0 1-.736-.677l.736.677Zm1.997-3.623a.5.5 0 0 1 .73.683l-.73-.683Zm3.507-2.262a.5.5 0 0 1-.725-.689l.725.689Zm2.094-3.631a.5.5 0 1 1 .719.694l-.719-.694Zm3.523-2.186a.5.5 0 0 1-.714-.7l.714.7Zm2.125-3.57a.5.5 0 0 1 .708.707l-.708-.707Zm3.598-2.167a.5.5 0 1 1-.702-.712l.702.712Zm2.181-3.532a.5.5 0 0 1 .696.718l-.696-.718Zm3.592-2.069a.5.5 0 1 1-.69-.723l.69.723Zm2.279-3.533a.5.5 0 1 1 .684.729l-.684-.729Zm3.63-2.012a.5.5 0 0 1-.678-.735l.678.735Zm2.296-3.457a.5.5 0 1 1 .672.74l-.672-.74Zm3.703-1.986a.5.5 0 0 1-.666-.747l.666.747Zm2.349-3.413a.5.5 0 0 1 .659.752l-.659-.752Zm3.709-1.9a.5.5 0 1 1-.653-.757l.653.757Zm2.445-3.403a.5.5 0 1 1 .646.763l-.646-.763Zm3.709-1.807a.5.5 0 0 1-.64-.769l.64.769Zm2.511-3.367a.5.5 0 0 1 .633.774l-.633-.774Zm3.774-1.77a.499.499 0 1 1-.625-.78l.625.78Zm2.516-3.277a.5.5 0 0 1 .619.786l-.619-.786Zm3.841-1.728a.5.5 0 0 1-.612-.792l.612.791Zm2.572-3.23a.5.5 0 0 1 .605.797l-.605-.797Zm3.86-1.649a.5.5 0 0 1-.597-.802l.597.802Zm2.659-3.201a.5.5 0 0 1 .589.808l-.589-.808Zm3.855-1.551a.5.5 0 1 1-.582-.814l.582.814Zm2.743-3.167a.5.5 0 0 1 .574.819l-.574-.82Zm3.862-1.46a.501.501 0 0 1-.566-.825l.566.825Zm2.822-3.125a.5.5 0 1 1 .557.83l-.557-.83Zm3.88-1.377a.5.5 0 0 1-.549-.835l.549.835Zm2.892-3.07a.5.5 0 1 1 .54.841l-.54-.841Zm3.917-1.301a.5.5 0 1 1-.532-.847l.532.847Zm2.943-3a.5.5 0 0 1 .522.853l-.522-.853Zm3.972-1.232a.5.5 0 0 1-.513-.858l.513.858Zm2.961-2.903a.5.5 0 1 1 .502.864l-.502-.864Zm4.043-1.164a.5.5 0 0 1-.492-.87l.492.87Zm3.028-2.829a.499.499 0 1 1 .48.877l-.48-.877Zm3.997-1.02a.5.5 0 0 1-.469-.883l.469.884Zm3.159-2.774a.5.5 0 0 1 .456.89l-.456-.89Zm4.072-.924a.5.5 0 1 1-.441-.898l.441.898Zm3.182-2.638a.499.499 0 1 1 .424.905l-.424-.905Zm4.156-.791a.5.5 0 0 1-.402-.916l.402.916Zm3.37-2.531a.5.5 0 1 1 .396.918l-.396-.918Zm4.371-.804a.5.5 0 1 1-.395-.919l.395.919Zm3.617-2.59a.5.5 0 0 1 .369.93l-.369-.93Zm4.409-.564a.5.5 0 1 1-.322-.947l.322.947Zm3.846-2.233a.5.5 0 0 1 .267.964l-.267-.964Zm4.445-.071a.5.5 0 0 1-.215-.977l.215.977Zm3.992-1.758a.5.5 0 1 1 .13.992l-.13-.992Zm4.192.71a.5.5 0 1 1-.008-1l.008 1Zm4.176-.786a.5.5 0 1 1-.108.994l.108-.994Zm3.92 1.65a.5.5 0 0 1 .209-.979l-.209.978Zm4.249.077a.5.5 0 0 1-.292.956l.292-.956Zm3.584 2.293a.5.5 0 1 1 .356-.935l-.356.935Zm4.202.647a.5.5 0 1 1-.402.916l.402-.916Zm3.339 2.637a.5.5 0 0 1 .432-.902l-.432.902Zm4.152.92a.5.5 0 1 1-.446.895l.446-.895Zm3.253 2.743a.5.5 0 1 1 .446-.895l-.446.895Zm4.152.919a.5.5 0 0 1-.431.902l.431-.902Zm3.342 2.63a.5.5 0 0 1 .399-.916l-.399.917Zm4.207.623a.5.5 0 1 1-.347.938l.347-.938Zm3.619 2.236a.5.5 0 1 1 .271-.962l-.271.962Zm4.246-.028a.5.5 0 0 1-.196.98l.196-.98Zm3.747 1.634a.5.5 0 1 1 .126-.992l-.126.992Zm3.98-.71a.5.5 0 0 1-.009 1l.009-1Zm4.078.62a.5.5 0 1 1-.221-.976l.221.976Zm3.079-2.536a.5.5 0 1 1 .664.747l-.664-.747Zm2.709-2.939a.5.5 0 1 1-.979-.204l.979.204Zm-.891-4.003a.5.5 0 1 1 .994-.111l-.994.111Zm.236-4.077a.5.5 0 0 1-.969.246l.969-.246Zm-2.078-3.54a.501.501 0 0 1 .952-.308l-.952.307Zm-.329-4.08a.5.5 0 0 1-.944.33l.944-.33Zm-2.26-3.424a.5.5 0 1 1 .945-.326l-.945.326Zm-.29-4.087a.5.5 0 0 1-.957.292l.957-.292Zm-1.985-3.59a.5.5 0 0 1 .978-.21l-.978.21Zm.482-4.053a.5.5 0 0 1-1 .019l1-.019Zm-.243-4.068a.5.5 0 1 1 .901.434l-.901-.434Zm3.468-2.017a.5.5 0 0 1-.42-.908l.42.908Zm3.566-2.072a.5.5 0 1 1 .186.982l-.186-.982Zm4.115.735a.5.5 0 1 1 .055-.999l-.055.999Zm4.164-.357a.5.5 0 0 1-.242.97l.242-.97Zm3.562 2.215a.5.5 0 1 1 .37-.929l-.37.93Zm4.115.778a.5.5 0 0 1-.453.891l.453-.891Zm3.087 2.835a.5.5 0 0 1 .505-.863l-.505.863Zm3.989 1.276a.5.5 0 1 1-.538.843l.538-.843Zm2.86 3.066a.5.5 0 1 1 .555-.832l-.555.832Zm3.935 1.443a.5.5 0 1 1-.56.829l.56-.829Zm2.823 3.101a.5.5 0 1 1 .553-.832l-.553.832Zm3.955 1.382a.5.5 0 0 1-.536.844l.536-.844Zm2.956 2.974a.5.5 0 0 1 .503-.865l-.503.865Zm4.05 1.075a.5.5 0 1 1-.452.891l.452-.891Zm3.284 2.608a.5.5 0 1 1 .377-.927l-.377.927Zm4.168.377a.5.5 0 0 1-.267.964l.267-.964Zm3.8 1.761a.5.5 0 1 1 .11-.994l-.11.994Zm4.093-.393a.5.5 0 1 1-.194.98l.194-.98Zm3.794 1.47a.5.5 0 1 1 .055-.998l-.055.998Zm3.942-1.017a.5.5 0 1 1 .062.998l-.062-.998Zm4.039.539a.5.5 0 0 1-.166-.986l.166.986Zm3.647-1.822a.5.5 0 0 1 .261.965l-.261-.965Zm4.062-.255a.5.5 0 0 1-.348-.937l.348.937Zm3.25-2.459a.5.5 0 1 1 .429.904l-.429-.904Zm3.955-.954a.5.5 0 0 1-.502-.865l.502.865Zm2.797-2.956a.5.5 0 1 1 .567.824l-.567-.824Zm3.767-1.559a.5.5 0 0 1-.626-.78l.626.78Zm2.34-3.33a.5.5 0 1 1 .677.737l-.677-.736Zm3.522-2.052a.5.5 0 0 1-.722-.692l.722.692Zm1.903-3.594a.5.5 0 1 1 .76.649l-.76-.65Zm3.262-2.449a.5.5 0 1 1-.794-.607l.794.607Zm1.514-3.787a.5.5 0 1 1 .823.568l-.823-.568Zm2.997-2.746a.5.5 0 0 1-.848-.53l.848.53Zm1.159-3.902a.5.5 0 0 1 .87.494l-.87-.494Zm2.76-2.994a.5.5 0 0 1-.888-.46l.888.46ZM.549 283.198c.296-.617.592-1.233.889-1.848l.9.435c-.296.614-.592 1.229-.887 1.845l-.902-.432Zm2.676-5.517a647.463 647.463 0 0 1 1.799-3.634l.895.447c-.601 1.203-1.2 2.413-1.797 3.628l-.897-.441Zm3.61-7.233a605.574 605.574 0 0 1 1.822-3.564l.89.458a604.146 604.146 0 0 0-1.82 3.558l-.892-.452Zm3.71-7.196a621.436 621.436 0 0 1 1.899-3.597l.882.47a613.255 613.255 0 0 0-1.896 3.591l-.886-.464Zm3.81-7.157a609.38 609.38 0 0 1 1.92-3.525l.877.482c-.641 1.167-1.28 2.34-1.918 3.518l-.88-.475Zm3.887-7.073a593.63 593.63 0 0 1 2-3.554l.87.494a591.301 591.301 0 0 0-1.997 3.547l-.873-.487Zm4.01-7.069a580.06 580.06 0 0 1 2.02-3.478l.863.505a605.127 605.127 0 0 0-2.017 3.472l-.866-.499Zm4.07-6.951a564.404 564.404 0 0 1 2.1-3.504l.856.517c-.7 1.16-1.4 2.325-2.097 3.498l-.86-.511Zm4.21-6.968c.704-1.148 1.41-2.289 2.118-3.424l.848.529a583.982 583.982 0 0 0-2.114 3.418l-.853-.523Zm4.256-6.828a568.296 568.296 0 0 1 2.2-3.447l.84.541a598.854 598.854 0 0 0-2.195 3.44l-.845-.534Zm4.407-6.853c.737-1.128 1.476-2.25 2.215-3.364l.833.552a588.977 588.977 0 0 0-2.21 3.359l-.838-.547Zm4.449-6.705c.764-1.135 1.53-2.263 2.297-3.384l.825.565a608.816 608.816 0 0 0-2.293 3.377l-.83-.558Zm4.6-6.724a563.323 563.323 0 0 1 2.31-3.297l.817.577c-.769 1.09-1.538 2.187-2.305 3.291l-.821-.571Zm4.645-6.58a586.058 586.058 0 0 1 2.393-3.312l.809.589a519.82 519.82 0 0 0-2.389 3.306l-.813-.583Zm4.79-6.579c.8-1.082 1.601-2.156 2.402-3.223l.8.6a575.21 575.21 0 0 0-2.397 3.217l-.804-.594Zm4.846-6.452a562.438 562.438 0 0 1 2.485-3.233l.791.612a524.049 524.049 0 0 0-2.48 3.228l-.796-.607Zm4.974-6.42c.83-1.055 1.66-2.101 2.49-3.141l.78.625a549.097 549.097 0 0 0-2.485 3.134l-.785-.618Zm5.05-6.319a543.905 543.905 0 0 1 2.573-3.147l.772.636a537.724 537.724 0 0 0-2.57 3.141l-.776-.63Zm5.147-6.245a536.575 536.575 0 0 1 2.6-3.08l.761.648a534.494 534.494 0 0 0-2.594 3.074l-.767-.642Zm5.259-6.182a555.1 555.1 0 0 1 2.657-3.051l.751.66a484.469 484.469 0 0 0-2.652 3.045l-.756-.654Zm5.31-6.051a506.33 506.33 0 0 1 2.732-3.039l.741.671a578.638 578.638 0 0 0-2.726 3.033l-.746-.665Zm5.47-6.038c.913-.991 1.824-1.973 2.734-2.946l.73.683c-.908.971-1.817 1.951-2.727 2.94l-.736-.677Zm5.516-5.897c.941-.99 1.88-1.971 2.819-2.942l.719.694c-.936.97-1.874 1.948-2.813 2.937l-.725-.689Zm5.628-5.828c.948-.966 1.894-1.923 2.839-2.87l.708.707c-.943.945-1.887 1.899-2.833 2.863l-.714-.7Zm5.735-5.749a471.4 471.4 0 0 1 2.883-2.82l.696.718c-.957.928-1.916 1.866-2.877 2.814l-.702-.712Zm5.785-5.612c.992-.947 1.982-1.884 2.969-2.81l.684.729c-.985.924-1.972 1.859-2.963 2.804l-.69-.723Zm5.921-5.557c.994-.918 1.986-1.825 2.974-2.722l.672.74c-.986.895-1.976 1.801-2.968 2.717l-.678-.735Zm6.011-5.455a517.539 517.539 0 0 1 3.015-2.666l.659.752c-.999.876-2.002 1.763-3.008 2.661l-.666-.747Zm6.071-5.323c1.038-.894 2.07-1.776 3.098-2.646l.646.763a468.553 468.553 0 0 0-3.091 2.64l-.653-.757Zm6.167-5.222a480.199 480.199 0 0 1 3.151-2.598l.633.774a444.853 444.853 0 0 0-3.144 2.593l-.64-.769Zm6.3-5.147c1.053-.845 2.1-1.678 3.141-2.498l.619.786a481.86 481.86 0 0 0-3.135 2.492l-.625-.78Zm6.37-5.018c1.069-.826 2.131-1.639 3.184-2.438l.605.797a433.376 433.376 0 0 0-3.177 2.433l-.612-.792Zm6.447-4.89c1.094-.814 2.18-1.613 3.256-2.398l.589.808c-1.073.783-2.156 1.58-3.248 2.393l-.597-.802Zm6.529-4.763c1.12-.8 2.229-1.585 3.325-2.353l.574.819c-1.094.766-2.2 1.549-3.317 2.348l-.582-.814Zm6.621-4.638a404.645 404.645 0 0 1 3.388-2.3l.557.83a405.111 405.111 0 0 0-3.379 2.295l-.566-.825Zm6.719-4.512c1.165-.765 2.312-1.51 3.441-2.235l.54.841c-1.126.724-2.27 1.466-3.432 2.23l-.549-.836Zm6.826-4.383c1.18-.74 2.339-1.458 3.475-2.153l.522.853a371.38 371.38 0 0 0-3.465 2.147l-.532-.847Zm6.934-4.243a350.14 350.14 0 0 1 3.474-2.045l.502.864a338.993 338.993 0 0 0-3.463 2.04l-.513-.86Zm7.025-4.08a318.93 318.93 0 0 1 3.52-1.958l.48.877a316.99 316.99 0 0 0-3.508 1.952l-.492-.87Zm7.048-3.86a275.449 275.449 0 0 1 3.628-1.892l.456.89c-1.14.584-2.346 1.211-3.615 1.885l-.469-.884Zm7.259-3.714a215.686 215.686 0 0 1 3.623-1.74l.424.905c-1.068.501-2.273 1.077-3.606 1.733l-.441-.898Zm7.377-3.447c.826-.363 1.425-.616 1.782-.767l.388.922c-.355.15-.949.4-1.768.76l-.402-.915Zm1.782-.767c.677-.285 1.339-.568 1.99-.848l.396.918c-.653.281-1.317.566-1.998.852l-.388-.922Zm5.966-2.57a153.275 153.275 0 0 1 4.012-1.671l.369.93a151.738 151.738 0 0 0-3.986 1.659l-.395-.919Zm8.099-3.183a75.667 75.667 0 0 1 4.168-1.286l.267.964a74.549 74.549 0 0 0-4.113 1.269l-.322-.947Zm8.398-2.334a92.96 92.96 0 0 1 2.135-.442l.192.981c-.726.142-1.429.288-2.112.438l-.215-.977Zm2.135-.442a34.05 34.05 0 0 1 2.072-.339l.13.992a32.95 32.95 0 0 0-2.01.328l-.192-.981Zm6.256-.629a36.004 36.004 0 0 1 4.184.214l-.108.994a35.038 35.038 0 0 0-4.068-.208l-.008-1Zm8.313.885c1.362.292 2.708.648 4.04 1.056l-.292.956a47.803 47.803 0 0 0-3.957-1.034l.209-.978Zm7.98 2.414a84.55 84.55 0 0 1 3.846 1.582l-.402.916a83.285 83.285 0 0 0-3.8-1.563l.356-.935Zm7.617 3.317c1.247.596 2.487 1.207 3.72 1.822l-.446.895a251.817 251.817 0 0 0-3.706-1.815l.432-.902Zm7.419 3.67c1.239.617 2.474 1.226 3.706 1.814l-.431.902a247.65 247.65 0 0 1-3.721-1.82l.446-.896Zm7.447 3.528a73.45 73.45 0 0 0 3.808 1.539l-.347.938a74.539 74.539 0 0 1-3.86-1.56l.399-.917Zm7.698 2.813c.658.185 1.317.354 1.977.505l-.222.975a41.703 41.703 0 0 1-2.026-.518l.271-.962Zm1.977.505c.689.157 1.355.3 1.998.429l-.196.98a75.034 75.034 0 0 1-2.024-.434l.222-.975Zm5.871 1.07c1.424.181 2.705.272 3.854.282l-.009 1a34.248 34.248 0 0 1-3.971-.289l.126-.992Zm7.711-.073c1.448-.328 2.52-.867 3.3-1.56l.664.747c-.932.829-2.168 1.432-3.743 1.789l-.221-.976Zm5.03-4.703c.233-1.114.245-2.39.088-3.799l.994-.111c.165 1.474.158 2.864-.103 4.114l-.979-.204Zm-.645-7.63c-.31-1.222-.69-2.49-1.109-3.787l.952-.307a62.97 62.97 0 0 1 1.126 3.848l-.969.246Zm-2.382-7.535c-.438-1.25-.886-2.51-1.316-3.755l.945-.326c.429 1.242.875 2.495 1.315 3.75l-.944.33Zm-2.563-7.55a47.585 47.585 0 0 1-1.028-3.883l.978-.209a46.417 46.417 0 0 0 1.007 3.8l-.957.292Zm-1.546-7.916c-.029-1.508.184-2.897.757-4.087l.901.434c-.483 1.004-.685 2.224-.658 3.634l-1 .019Zm3.805-7.012a9.572 9.572 0 0 1 2.003-.652l.21.977a8.565 8.565 0 0 0-1.793.583l-.42-.908Zm1.952-.638a16.085 16.085 0 0 1 2.034-.526l.186.982c-.639.122-1.275.285-1.908.493l-.312-.95Zm6.204-.79c1.363.075 2.733.298 4.109.642l-.242.97a20.93 20.93 0 0 0-3.922-.613l.055-.999Zm8.041 1.928a45.583 45.583 0 0 1 3.745 1.707l-.453.891a44.339 44.339 0 0 0-3.662-1.669l.37-.929Zm7.337 3.68a107.63 107.63 0 0 1 3.484 2.138l-.538.843a107.182 107.182 0 0 0-3.451-2.119l.505-.863Zm6.899 4.372c1.125.75 2.252 1.513 3.38 2.275l-.56.829c-1.129-.763-2.253-1.524-3.375-2.272l.555-.832Zm6.756 4.544c1.134.753 2.268 1.495 3.402 2.214l-.536.844a186.2 186.2 0 0 1-3.419-2.226l.553-.832Zm6.861 4.323c1.184.69 2.367 1.34 3.547 1.94l-.452.891a71.27 71.27 0 0 1-3.598-1.966l.503-.865Zm7.208 3.621c1.269.517 2.533.957 3.791 1.304l-.267.964a35.233 35.233 0 0 1-3.901-1.341l.377-.927Zm7.701 2.071c.662.074 1.323.116 1.982.126l-.015 1a21.689 21.689 0 0 1-2.077-.132l.11-.994Zm2.115.146c.578.17 1.202.323 1.868.455l-.194.98a22.309 22.309 0 0 1-1.955-.476l.281-.959Zm5.717.927c1.219.066 2.519.065 3.887-.02l.062.999a34.464 34.464 0 0 1-4.004.02l.055-1Zm7.76-.466a40.052 40.052 0 0 0 3.813-.836l.261.965a41.03 41.03 0 0 1-3.908.857l-.166-.986Zm7.527-2.028a44.74 44.74 0 0 0 3.598-1.522l.429.904a45.918 45.918 0 0 1-3.679 1.555l-.348-.937Zm7.051-3.341a50.522 50.522 0 0 0 3.299-2.09l.567.823a51.573 51.573 0 0 1-3.364 2.132l-.502-.865Zm6.44-4.43a57.887 57.887 0 0 0 2.966-2.55l.677.737a59.059 59.059 0 0 1-3.017 2.593l-.626-.78Zm5.766-5.294a67.846 67.846 0 0 0 2.625-2.902l.76.649a68.269 68.269 0 0 1-2.663 2.945l-.722-.692Zm5.093-5.958a80 80 0 0 0 2.308-3.18l.823.568a81.002 81.002 0 0 1-2.337 3.22l-.794-.608Zm4.457-6.456a94.188 94.188 0 0 0 2.007-3.372l.87.494a96.318 96.318 0 0 1-2.029 3.408l-.848-.53Zm3.879-6.825c.301-.581.599-1.172.896-1.771l.896.443c-.299.605-.6 1.2-.904 1.787l-.888-.46Z" fill="url(#a)" />
	<defs>
		<linearGradient id="a" x1="-32.325" y1="130.958" x2="474.129" y2="153.147" gradientUnits="userSpaceOnUse">
			<stop stop-color="#2A525A" />
			<stop offset=".362" stop-color="#0BB0B0" />
			<stop offset=".659" stop-color="#1CD8D8" />
			<stop offset="1" stop-color="#B4EFEF" />
		</linearGradient>
	</defs>
</svg>
