<svg width="121" height="31" fill="none" xmlns="http://www.w3.org/2000/svg">
	<g clip-path="url(#a)">
		<path d="M41.078 11.714c-1.386-1.426-3.182-2.109-5.387-2.109-1.953 0-3.655.559-5.01 1.737-1.637 1.396-2.457 3.567-2.457 6.483 0 1.457.22 2.73.662 3.815h2.961c-.567-.962-.85-2.233-.85-3.815 0-2.016.44-3.536 1.323-4.529.914-.992 2.016-1.489 3.371-1.489s2.457.497 3.371 1.49c.882 1.023 1.323 2.48 1.323 4.435 0 2.047-.44 3.598-1.323 4.59-.914 1.024-2.016 1.52-3.371 1.52h-5.482c.032.03.032.062.063.062 1.386 1.427 3.182 2.14 5.419 2.14 1.418 0 2.678-.341 3.875-.961 1.166-.652 2.08-1.551 2.678-2.73.63-1.148.945-2.73.945-4.776 0-2.482-.724-4.436-2.11-5.863ZM56.648 10.319v8.343s1.008-.9 1.355-1.24a68.286 68.286 0 0 0 1.354-1.303v-5.8h-2.709ZM52.395 24.09c-1.071 0-1.89-.31-2.49-.9-.566-.62-.881-1.581-.881-2.915v-9.956h-2.678v9.956c0 1.55.157 2.73.535 3.536.379.806 1.387 1.582 2.269 2.047.85.465 4.537 1.489 7.498-1.055v1.272h2.678v-6.823s-4.41 4.838-6.931 4.838ZM62.498 20.213v5.8h2.678V17.67s-1.008.9-1.355 1.24c-.346.31-1.323 1.303-1.323 1.303Zm12.445-7.692c-.378-.807-1.386-1.582-2.269-2.047-.85-.465-4.536-1.489-7.498 1.054v-1.271h-2.678v6.823s4.411-4.838 6.931-4.838c1.072 0 1.89.31 2.49.9.566.62.881 1.581.881 2.915v9.956h2.71v-9.956c0-1.551-.19-2.699-.567-3.536ZM83.912 23.346c-.22-.124-.347-.31-.441-.528-.126-.217-.158-.682-.158-1.457v-7.134h-2.678v6.979c0 1.612.095 2.667.316 3.163.22.497.598.9 1.134 1.21.535.31 1.323.434 2.3.434.44 0 .913-.03 1.449-.124v-2.42c-.41.032-.725.063-.977.063-.41 0-.725-.062-.945-.186Zm-.599-13.244V6.069h-2.457l-.22.125v3.908H78.65v2.078h7.372v-2.078h-2.71ZM96.937 10.714h1.3v1.378h-1.3v2.29h-1.744v-2.29h-4.516l-.05-1.046 4.508-6.954h1.802v6.622Zm-4.48 0h2.736V6.417l-.13.226-2.605 4.07ZM117.253 3.93v12.53c0 1.892-.157 3.288-.535 4.187a3.775 3.775 0 0 1-1.827 2.047c-.851.497-1.922.745-3.182.745h-.189c-3.277 0-6.238-1.365-8.381-3.505.095.651.252 1.24.441 1.768.504 1.271 1.418 2.326 2.741 3.132 1.292.776 3.025 1.18 5.136 1.18 2.079 0 3.749-.342 5.072-1.024 1.323-.714 2.237-1.737 2.804-3.071.567-1.303.85-3.133.85-5.428V3.929h-2.93Zm-11.499 14.608V3.93h-2.898v11.476c.472 1.83 2.898 3.133 2.898 3.133Z" fill="#3B3B47" />
		<g filter="url(#b)">
			<path fill-rule="evenodd" clip-rule="evenodd" d="M4.475 25.68a14.879 14.879 0 0 1 0-21.274L15.28 15.043 4.475 25.68Z" fill="#1CD8D8" />
		</g>
		<g filter="url(#c)">
			<path fill-rule="evenodd" clip-rule="evenodd" d="M4.464 4.406c5.967-5.875 15.642-5.875 21.609 0L15.268 15.043 4.464 4.406Z" fill="#0BB0B0" />
		</g>
		<g filter="url(#d)">
			<path fill-rule="evenodd" clip-rule="evenodd" d="M26.071 25.68c-5.967 5.874-15.642 5.874-21.61 0l10.806-10.638L26.07 25.68Z" fill="#B4EFEF" />
		</g>
	</g>
	<defs>
		<filter id="b" x="-8" y="-1.594" width="35.28" height="41.274" filterUnits="userSpaceOnUse" color-interpolation-filters="sRGB">
			<feFlood flood-opacity="0" result="BackgroundImageFix" />
			<feColorMatrix in="SourceAlpha" values="0 0 0 0 0 0 0 0 0 0 0 0 0 0 0 0 0 0 127 0" result="hardAlpha" />
			<feOffset dx="2" dy="4" />
			<feGaussianBlur stdDeviation="5" />
			<feColorMatrix values="0 0 0 0 0.105882 0 0 0 0 0.470588 0 0 0 0 0.92549 0 0 0 0.06 0" />
			<feBlend in2="BackgroundImageFix" result="effect1_dropShadow_506_3338" />
			<feBlend in="SourceGraphic" in2="effect1_dropShadow_506_3338" result="shape" />
		</filter>
		<filter id="c" x="-3.536" y="-6" width="41.609" height="35.043" filterUnits="userSpaceOnUse" color-interpolation-filters="sRGB">
			<feFlood flood-opacity="0" result="BackgroundImageFix" />
			<feColorMatrix in="SourceAlpha" values="0 0 0 0 0 0 0 0 0 0 0 0 0 0 0 0 0 0 127 0" result="hardAlpha" />
			<feOffset dx="2" dy="4" />
			<feGaussianBlur stdDeviation="5" />
			<feColorMatrix values="0 0 0 0 0.105882 0 0 0 0 0.470588 0 0 0 0 0.92549 0 0 0 0.06 0" />
			<feBlend in2="BackgroundImageFix" result="effect1_dropShadow_506_3338" />
			<feBlend in="SourceGraphic" in2="effect1_dropShadow_506_3338" result="shape" />
		</filter>
		<filter id="d" x="-3.538" y="9.042" width="41.609" height="35.043" filterUnits="userSpaceOnUse" color-interpolation-filters="sRGB">
			<feFlood flood-opacity="0" result="BackgroundImageFix" />
			<feColorMatrix in="SourceAlpha" values="0 0 0 0 0 0 0 0 0 0 0 0 0 0 0 0 0 0 127 0" result="hardAlpha" />
			<feOffset dx="2" dy="4" />
			<feGaussianBlur stdDeviation="5" />
			<feColorMatrix values="0 0 0 0 0.105882 0 0 0 0 0.470588 0 0 0 0 0.92549 0 0 0 0.06 0" />
			<feBlend in2="BackgroundImageFix" result="effect1_dropShadow_506_3338" />
			<feBlend in="SourceGraphic" in2="effect1_dropShadow_506_3338" result="shape" />
		</filter>
		<clipPath id="a">
			<path fill="#fff" d="M0 0h121v31H0z" />
		</clipPath>
	</defs>
</svg>
