<svg width="131" height="55" fill="none" xmlns="http://www.w3.org/2000/svg">
	<path d="M51.895 22.3515c-1.3862-1.4267-3.182-2.1091-5.3873-2.1091-1.9533 0-3.6546.5583-5.0093 1.7369-1.6383 1.3958-2.4574 3.5669-2.4574 6.4825 0 1.4577.2206 2.7294.6616 3.815h2.9615c-.5671-.9615-.8507-2.2332-.8507-3.815 0-2.0161.4411-3.5359 1.3233-4.5285.9136-.9925 2.0163-1.4887 3.371-1.4887 1.3547 0 2.4574.4962 3.371 1.4887.8821 1.0236 1.3232 2.4814 1.3232 4.4354 0 2.0471-.4411 3.5979-1.3232 4.5904-.9136 1.0236-2.0163 1.5198-3.371 1.5198h-5.4819c.0315.0311.0315.0621.063.0621 1.3863 1.4267 3.182 2.1401 5.4189 2.1401 1.4177 0 2.6779-.3412 3.8751-.9615 1.1657-.6513 2.0793-1.5508 2.6779-2.7294.6301-1.1477.9452-2.7295.9452-4.7766 0-2.4813-.7247-4.4353-2.1109-5.8621ZM67.4646 20.9558v8.3434s1.0082-.8995 1.3547-1.2407c.3466-.3101 1.3547-1.3027 1.3547-1.3027v-5.8h-2.7094Zm-4.2532 13.7713c-1.0711 0-1.8903-.3102-2.4888-.8995-.5671-.6203-.8822-1.5818-.8822-2.9155v-9.9563h-2.6779v9.9563c0 1.5508.1575 2.7294.5356 3.5358.378.8065 1.3862 1.5819 2.2683 2.0471.8507.4653 4.5367 1.4888 7.4982-1.0545v1.2716h2.6779v-6.8236s-4.4107 4.8386-6.9311 4.8386ZM73.3149 30.85v5.8001h2.6779v-8.3434s-1.0081.8994-1.3547 1.2406c-.3465.3102-1.3232 1.3027-1.3232 1.3027Zm12.4445-7.6921c-.3781-.8064-1.3863-1.5818-2.2684-2.0471-.8506-.4652-4.5367-1.4887-7.4982 1.0546v-1.2717h-2.6779v6.8237s4.4107-4.8386 6.9311-4.8386c1.0712 0 1.8903.3102 2.4889.8995.5671.6203.8821 1.5818.8821 2.9155v9.9563h2.7094v-9.9563c0-1.5508-.189-2.6984-.567-3.5359ZM94.7287 33.9827c-.2206-.1241-.3466-.3102-.4411-.5273-.126-.2171-.1575-.6824-.1575-1.4578v-7.1338h-2.6779v6.9787c0 1.6129.0945 2.6675.315 3.1637.2205.4963.5986.8995 1.1342 1.2097.5356.3101 1.3232.4342 2.2998.4342a8.32 8.32 0 0 0 1.4493-.1241v-2.4192c-.4096.031-.7247.062-.9767.062-.4096 0-.7246-.062-.9451-.1861Zm-.5986-13.244v-4.0322h-2.4574l-.2205.1241v3.9081h-1.9849v2.0781h7.3722v-2.0781h-2.7094ZM107.754 21.3509h1.299v1.3781h-1.299v2.2899h-1.745V22.729h-4.515l-.05-1.046 4.508-6.9544h1.802v6.6223Zm-4.48 0h2.735v-4.2971l-.129.2262-2.606 4.0709ZM128.07 14.5664V27.097c0 1.892-.157 3.2878-.535 4.1873-.347.8994-.946 1.5818-1.828 2.047-.85.4963-1.922.7444-3.182.7444h-.189c-3.276 0-6.238-1.3647-8.38-3.5048.094.6513.252 1.2406.441 1.7679.504 1.2717 1.418 2.3262 2.741 3.1327 1.292.7754 3.024 1.1786 5.135 1.1786 2.08 0 3.749-.3412 5.073-1.0235 1.323-.7134 2.236-1.737 2.803-3.0707.568-1.3027.851-3.1326.851-5.4279V14.5664h-2.93Zm-11.499 14.6087V14.5664h-2.899v11.4761c.473 1.8299 2.899 3.1326 2.899 3.1326Z" fill="#3B3B47" />
	<g filter="url(#a)">
		<path fill-rule="evenodd" clip-rule="evenodd" d="M15.292 36.3172a14.8786 14.8786 0 0 1 0-21.274l10.8046 10.637-10.8046 10.637Z" fill="#1CD8D8" />
	</g>
	<g filter="url(#b)">
		<path fill-rule="evenodd" clip-rule="evenodd" d="M15.2805 15.043c5.9672-5.8746 15.6419-5.8746 21.6091 0L26.0851 25.6801 15.2805 15.043Z" fill="#0BB0B0" />
	</g>
	<g filter="url(#c)">
		<path fill-rule="evenodd" clip-rule="evenodd" d="M36.8877 36.3164c-5.9672 5.8747-15.6419 5.8747-21.6091 0l10.8045-10.637 10.8046 10.637Z" fill="#B4EFEF" />
	</g>
	<defs>
		<filter id="a" x="2.8167" y="9.0432" width="35.2799" height="41.2741" filterUnits="userSpaceOnUse" color-interpolation-filters="sRGB">
			<feFlood flood-opacity="0" result="BackgroundImageFix" />
			<feColorMatrix in="SourceAlpha" values="0 0 0 0 0 0 0 0 0 0 0 0 0 0 0 0 0 0 127 0" result="hardAlpha" />
			<feOffset dx="2" dy="4" />
			<feGaussianBlur stdDeviation="5" />
			<feColorMatrix values="0 0 0 0 0.105882 0 0 0 0 0.470588 0 0 0 0 0.92549 0 0 0 0.06 0" />
			<feBlend in2="BackgroundImageFix" result="effect1_dropShadow_0_1" />
			<feBlend in="SourceGraphic" in2="effect1_dropShadow_0_1" result="shape" />
		</filter>
		<filter id="b" x="7.2805" y="4.637" width="41.6091" height="35.0431" filterUnits="userSpaceOnUse" color-interpolation-filters="sRGB">
			<feFlood flood-opacity="0" result="BackgroundImageFix" />
			<feColorMatrix in="SourceAlpha" values="0 0 0 0 0 0 0 0 0 0 0 0 0 0 0 0 0 0 127 0" result="hardAlpha" />
			<feOffset dx="2" dy="4" />
			<feGaussianBlur stdDeviation="5" />
			<feColorMatrix values="0 0 0 0 0.105882 0 0 0 0 0.470588 0 0 0 0 0.92549 0 0 0 0.06 0" />
			<feBlend in2="BackgroundImageFix" result="effect1_dropShadow_0_1" />
			<feBlend in="SourceGraphic" in2="effect1_dropShadow_0_1" result="shape" />
		</filter>
		<filter id="c" x="7.2786" y="19.6794" width="41.6091" height="35.0431" filterUnits="userSpaceOnUse" color-interpolation-filters="sRGB">
			<feFlood flood-opacity="0" result="BackgroundImageFix" />
			<feColorMatrix in="SourceAlpha" values="0 0 0 0 0 0 0 0 0 0 0 0 0 0 0 0 0 0 127 0" result="hardAlpha" />
			<feOffset dx="2" dy="4" />
			<feGaussianBlur stdDeviation="5" />
			<feColorMatrix values="0 0 0 0 0.105882 0 0 0 0 0.470588 0 0 0 0 0.92549 0 0 0 0.06 0" />
			<feBlend in2="BackgroundImageFix" result="effect1_dropShadow_0_1" />
			<feBlend in="SourceGraphic" in2="effect1_dropShadow_0_1" result="shape" />
		</filter>
	</defs>
</svg>
