<svg width="256" height="483" fill="none" xmlns="http://www.w3.org/2000/svg">
	<path d="m26.23 391.19.26.427-.053.033-.06.018-.148-.478Zm57.05-12.103-.376-.33.016-.018.018-.017.342.365ZM78 340.721l-.144-.478.144.478Zm70.019-24.947-.272-.419.272.419ZM260.335 2.371a.5.5 0 1 1-.996.09l.996-.09Zm-.647 4.103a.5.5 0 1 1 .997-.084l-.997.084Zm1.317 3.905a.5.5 0 0 1-.997.076l.997-.076Zm-.706 4.027a.5.5 0 0 1 .998-.07l-.998.07Zm1.261 3.858a.5.5 0 0 1-.998.063l.998-.063Zm-.757 4.063a.5.5 0 1 1 .998-.056l-.998.056Zm1.212 3.964a.5.5 0 0 1-.999.05l.999-.05Zm-.815 4.03a.5.5 0 1 1 .999-.043l-.999.043Zm1.153 3.912a.5.5 0 1 1-.999.035l.999-.035Zm-.873 3.967a.5.5 0 1 1 .999-.029l-.999.029Zm1.099 4.016a.5.5 0 0 1-1 .02l1-.02Zm-.932 4.023a.501.501 0 0 1 1-.014l-1 .014Zm1.039 3.961a.5.5 0 0 1-1 .006l1-.006Zm-.992 3.939a.499.499 0 1 1 1 .002l-1-.002Zm.977 4.01a.5.5 0 0 1-1-.009l1 .01Zm-1.054 4.007a.5.5 0 1 1 1 .017l-1-.017Zm.914 4.004a.5.5 0 0 1-1-.025l1 .025Zm-1.116 3.916a.5.5 0 1 1 .999.034l-.999-.034Zm.849 4.01a.5.5 0 1 1-.999-.042l.999.041Zm-1.183 3.977a.499.499 0 1 1 .998.05l-.998-.05Zm.781 4.039a.5.5 0 1 1-.998-.059l.998.059Zm-1.246 3.882a.499.499 0 1 1 .997.067l-.997-.067Zm.714 4.024a.5.5 0 1 1-.997-.075l.997.075Zm-1.32 3.938a.5.5 0 1 1 .997.084l-.997-.085Zm.641 4.064a.5.5 0 0 1-.996-.094l.996.094Zm-1.383 3.836a.5.5 0 0 1 .995.102l-.995-.102Zm.569 4.054a.5.5 0 0 1-.994-.112l.994.112Zm-1.461 3.882a.498.498 0 1 1 .992.121l-.992-.121Zm.491 4.081a.5.5 0 1 1-.992-.131l.992.131Zm-1.524 3.775a.5.5 0 0 1 .99.14l-.99-.14Zm.412 4.095a.5.5 0 0 1-.988-.149l.988.149Zm-1.607 3.814a.5.5 0 1 1 .987.16l-.987-.16Zm.334 4.086a.5.5 0 0 1-.986-.169l.986.169Zm-1.67 3.7a.5.5 0 0 1 .984.179l-.984-.179Zm.242 4.145a.5.5 0 1 1-.982-.19l.982.19Zm-1.758 3.729a.5.5 0 0 1 .98.199l-.98-.199Zm.17 4.078a.5.5 0 0 1-.978-.209l.978.209Zm-1.83 3.666a.5.5 0 0 1 .976.22l-.976-.22Zm.069 4.143a.5.5 0 0 1-.973-.231l.973.231Zm-1.91 3.628a.5.5 0 0 1 .97.241l-.97-.241Zm-.001 4.058a.499.499 0 1 1-.967-.252l.967.252Zm-2.005 3.643a.5.5 0 1 1 .965.263l-.965-.263Zm-.107 4.114a.5.5 0 1 1-.962-.274l.962.274Zm-2.063 3.509a.5.5 0 0 1 .959.285l-.959-.285Zm-.207 4.126a.5.5 0 1 1-.955-.296l.955.296Zm-2.161 3.513a.501.501 0 0 1 .952.308l-.952-.308Zm-.288 4.069a.5.5 0 1 1-.948-.319l.948.319Zm-2.241 3.453a.5.5 0 1 1 .944.33l-.944-.33Zm-.404 4.109a.5.5 0 0 1-.94-.341l.94.341Zm-2.313 3.364a.499.499 0 1 1 .935.353l-.935-.353Zm-.5 4.082a.5.5 0 1 1-.931-.365l.931.365Zm-2.415 3.35a.5.5 0 1 1 .926.377l-.926-.377Zm-.591 4.037a.5.5 0 0 1-.921-.389l.921.389Zm-2.496 3.278a.5.5 0 1 1 .916.4l-.916-.4Zm-.714 4.061a.5.5 0 0 1-.911-.413l.911.413Zm-2.561 3.165a.5.5 0 0 1 .906.425l-.906-.425Zm-.827 4.054a.5.5 0 1 1-.899-.437l.899.437Zm-2.663 3.132a.5.5 0 1 1 .893.45l-.893-.45Zm-.906 3.97a.501.501 0 0 1-.888-.461l.888.461Zm-2.767 3.092a.5.5 0 0 1 .881.474l-.881-.474Zm-1.026 3.961a.499.499 0 1 1-.874-.486l.874.486Zm-2.831 2.977a.5.5 0 1 1 .867.498l-.867-.498Zm-1.156 3.96a.5.5 0 0 1-.86-.511l.86.511Zm-2.892 2.855a.501.501 0 0 1 .853.523l-.853-.523Zm-1.285 3.949a.499.499 0 1 1-.844-.535l.844.535Zm-2.989 2.793a.5.5 0 1 1 .837.548l-.837-.548Zm-1.38 3.877a.5.5 0 1 1-.828-.56l.828.56Zm-3.086 2.723a.5.5 0 0 1 .82.572l-.82-.572Zm-1.479 3.809a.5.5 0 1 1-.811-.585l.811.585Zm-3.18 2.644a.5.5 0 0 1 .801.598l-.801-.598Zm-1.584 3.745a.5.5 0 1 1-.792-.61l.792.61Zm-3.272 2.557a.5.5 0 0 1 .783.623l-.783-.623Zm-1.702 3.694a.5.5 0 0 1-.772-.635l.772.635Zm-3.351 2.449a.5.5 0 1 1 .762.647l-.762-.647Zm-1.822 3.638a.5.5 0 0 1-.752-.66l.752.66Zm-3.429 2.336a.499.499 0 1 1 .74.672l-.74-.672Zm-1.938 3.569a.5.5 0 0 1-.728-.685l.728.685Zm-3.512 2.224a.5.5 0 0 1 .717.697l-.717-.697Zm-2.073 3.512a.5.5 0 0 1-.704-.71l.704.71Zm-3.571 2.081a.5.5 0 1 1 .691.723l-.691-.723Zm-2.22 3.456a.5.5 0 0 1-.678-.735l.678.735Zm-3.608 1.914a.5.5 0 1 1 .664.748l-.664-.748Zm-2.378 3.393a.5.5 0 0 1-.648-.761l.648.761Zm-3.691 1.779a.5.5 0 0 1 .633.774l-.633-.774Zm-2.458 3.248a.5.5 0 0 1-.616-.787l.616.787Zm-3.802 1.649a.5.5 0 0 1 .598.801l-.598-.801Zm-2.646 3.163a.5.5 0 0 1-.578-.816l.578.816Zm-3.851 1.441a.5.5 0 1 1 .556.831l-.556-.831Zm-2.835 2.996a.5.5 0 0 1-.511-.86l.511.86Zm-4.11 1.126a.5.5 0 1 1 .459.888l-.459-.888Zm-3.283 2.717a.5.5 0 0 1-.421-.908l.421.908Zm-4.186.766a.5.5 0 0 1 .392.92l-.392-.92Zm-3.448 2.501a.501.501 0 0 1-.37-.93l.37.93Zm-4.229.56a.5.5 0 0 1 .352.936l-.352-.936Zm-3.544 2.359a.5.5 0 0 1-.335-.942l.335.942Zm-4.241.42a.5.5 0 1 1 .323.946l-.323-.946Zm-3.611 2.261a.499.499 0 1 1-.311-.95l.311.95Zm-4.249.321a.5.5 0 1 1 .302.953l-.302-.953Zm-3.654 2.189a.5.5 0 0 1-.294-.956l.294.956Zm-4.256.249a.501.501 0 0 1 .288.958l-.288-.958Zm-3.683 2.137a.5.5 0 0 1-.282-.959l.282.959Zm-4.257.199a.5.5 0 1 1 .277.961l-.277-.961Zm-3.709 2.105a.5.5 0 1 1-.274-.962l.274.962Zm-4.258.172a.5.5 0 0 1 .273.962l-.273-.962Zm-3.711 2.096a.5.5 0 0 1-.275-.962l.275.962Zm-4.256.186a.5.5 0 0 1 .28.96l-.28-.96Zm-3.652 2.161a.5.5 0 0 1-.313-.95l.313.95Zm-4.09.439a.499.499 0 1 1 .382.924l-.382-.924Zm-3.167 2.646a.5.5 0 1 1-.503-.864l.503.864Zm-3.777 1.678a.5.5 0 0 1 .747.664l-.747-.664Zm-.527 3.917a.5.5 0 0 1-.998.064l.998-.064Zm.628 3.97a.5.5 0 1 1 .807-.59l-.807.59Zm3.46 2.299a.5.5 0 0 1-.68.733l.68-.733Zm2.4 3.358a.499.499 0 1 1 .625-.78l-.625.78Zm3.785 1.682a.5.5 0 1 1-.61.793l.61-.793Zm2.552 3.254a.5.5 0 1 1 .625-.781l-.625.781Zm3.714 1.841a.5.5 0 1 1-.677.736l.677-.736Zm2.015 3.59a.5.5 0 0 1 .791-.612l-.79.612Zm2.681 3.144a.5.5 0 1 1-.98.198l.98-.198Zm-1.681 3.64a.5.5 0 1 1 .839.545l-.84-.545Zm-2.074 3.689a.5.5 0 0 1-.656-.755l.656.755Zm-4.085 1.538a.5.5 0 0 1 .456.89l-.456-.89Zm-3.575 2.49a.5.5 0 0 1-.29-.957l.29.957Zm-4.376-.007a.5.5 0 0 1 .171.986l-.171-.986Zm-4.087 1.543a.5.5 0 1 1-.094-.996l.094.996Zm-4.315-.709a.5.5 0 0 1 .046.999l-.046-.999Zm-4.222 1.134a.5.5 0 0 1-.02-1l.02 1Zm-4.274-.933a.5.5 0 1 1 .014 1l-.014-1Zm-4.237 1.075a.5.5 0 0 1-.025-1l.025 1Zm-4.293-.842a.5.5 0 0 1 .053.999l-.053-.999Zm-4.165 1.321a.5.5 0 0 1-.103-.995l.103.995Zm-4.355-.401a.5.5 0 0 1 .18.984l-.18-.984Zm-3.908 1.953a.5.5 0 1 1-.288-.958l.288.958Zm-4.329.598a.5.5 0 0 1 .435.9l-.435-.9Zm-3.158 2.716a.499.499 0 1 1-.51-.859l.51.859Zm-3.73 1.565a.5.5 0 0 1 .664.748l-.664-.748Zm-2.112 3.474a.5.5 0 1 1-.73-.682l.73.682Zm-3.351 2.312a.5.5 0 0 1 .772.636l-.772-.636Zm-1.632 3.706a.5.5 0 0 1-.801-.598l.801.598Zm-3.108 2.631a.5.5 0 0 1 .825.565l-.825-.565Zm-1.327 3.836a.5.5 0 1 1-.845-.535l.845.535Zm-2.9 2.838a.5.5 0 1 1 .862.506l-.863-.506Zm-1.072 3.92a.5.5 0 1 1-.878-.479l.878.479Zm-2.722 3.021a.5.5 0 0 1 .892.453l-.892-.453Zm-.834 3.98a.5.5 0 0 1-.905-.426l.905.426Zm-2.538 3.174a.5.5 0 1 1 .916.4l-.916-.4Zm-.6 4.016a.5.5 0 0 1-.928-.374l.928.374Zm-2.35 3.312a.5.5 0 0 1 .938.347l-.938-.347Zm-.367 4.045a.5.5 0 0 1-.948-.318l.948.318Zm-2.153 3.446a.5.5 0 1 1 .957.29l-.957-.29Zm-.126 4.06a.5.5 0 1 1-.965-.262l.965.262Zm-1.941 3.569a.5.5 0 0 1 .973.232l-.973-.232Zm.123 4.061a.5.5 0 1 1-.98-.201l.98.201Zm-1.712 3.685a.5.5 0 0 1 .986.169l-.986-.169Zm.386 4.043a.5.5 0 1 1-.99-.137l.99.137Zm-1.464 3.788a.5.5 0 1 1 .995.103l-.995-.103Zm.66 4.007a.5.5 0 0 1-.997-.068l.997.068Zm-1.195 3.881a.5.5 0 1 1 1 .032l-1-.032Zm.946 3.95a.5.5 0 0 1-1 .005l1-.005Zm-.907 3.959a.5.5 0 0 1 .999-.043l-1 .043ZM260.149.35l.186 2.021-.996.09c-.061-.671-.122-1.344-.185-2.017l.995-.094Zm.536 6.04c.111 1.335.218 2.664.32 3.989l-.997.076c-.102-1.322-.208-2.649-.32-3.981l.997-.084Zm.612 7.946c.092 1.314.18 2.624.263 3.928l-.998.063c-.083-1.302-.17-2.609-.263-3.92l.998-.07Zm.504 7.935c.076 1.345.148 2.685.214 4.02l-.999.05c-.066-1.333-.137-2.67-.213-4.014l.998-.056Zm.398 8.007a545.5 545.5 0 0 1 .154 3.955l-.999.035c-.046-1.31-.098-2.626-.154-3.947l.999-.043Zm.28 7.893c.039 1.354.072 2.702.1 4.045l-1 .02c-.028-1.34-.061-2.685-.099-4.036l.999-.029Zm.168 8.054c.018 1.331.031 2.656.039 3.975l-1 .006a530.83 530.83 0 0 0-.039-3.967l1-.014Zm.047 7.916c-.003 1.342-.01 2.678-.023 4.009l-1-.01c.013-1.327.02-2.661.023-4.001l1 .002Zm-.077 8.032a516.432 516.432 0 0 1-.086 3.987l-1-.025c.034-1.32.062-2.647.086-3.98l1 .018Zm-.203 7.937a423.232 423.232 0 0 1-.15 3.975l-.999-.041c.055-1.316.105-2.639.15-3.968l.999.034Zm-.335 8.003a454.953 454.953 0 0 1-.217 3.989l-.998-.059c.077-1.32.15-2.647.217-3.98l.998.05Zm-.466 7.938a439.877 439.877 0 0 1-.283 3.957l-.997-.075c.099-1.31.194-2.626.283-3.949l.997.067Zm-.606 7.98c-.114 1.333-.232 2.66-.356 3.979l-.996-.094c.124-1.316.242-2.64.355-3.97l.997.084Zm-.744 7.917a464.604 464.604 0 0 1-.426 3.952l-.994-.112c.147-1.307.289-2.621.425-3.942l.995.102Zm-.895 7.955a415.05 415.05 0 0 1-.501 3.96l-.992-.131c.173-1.309.339-2.626.501-3.95l.992.121Zm-1.035 7.875c-.187 1.326-.38 2.644-.578 3.955l-.988-.149c.197-1.308.389-2.623.576-3.946l.99.14Zm-1.198 7.929c-.212 1.316-.43 2.625-.653 3.926l-.986-.169c.223-1.298.44-2.603.652-3.917l.987.16Zm-1.339 7.805a368.21 368.21 0 0 1-.742 3.966l-.982-.19c.252-1.31.499-2.628.74-3.955l.984.179Zm-1.52 7.894a339.314 339.314 0 0 1-.81 3.879l-.978-.209c.275-1.281.544-2.571.808-3.869l.98.199Zm-1.664 7.765a365.842 365.842 0 0 1-.907 3.923l-.973-.231c.307-1.295.608-2.599.904-3.912l.976.22Zm-1.847 7.792a342.478 342.478 0 0 1-.971 3.817l-.967-.252c.328-1.26.65-2.528.968-3.806l.97.241Zm-2.011 7.723c-.352 1.293-.71 2.576-1.072 3.851l-.962-.274c.362-1.271.718-2.55 1.069-3.84l.965.263Zm-2.176 7.645c-.384 1.29-.772 2.571-1.166 3.841l-.955-.296c.392-1.267.78-2.543 1.162-3.83l.959.285Zm-2.375 7.662a338.433 338.433 0 0 1-1.24 3.761l-.948-.319c.417-1.24.829-2.49 1.236-3.75l.952.308Zm-2.537 7.544c-.445 1.27-.894 2.53-1.348 3.779l-.94-.341c.453-1.246.901-2.502 1.344-3.768l.944.33Zm-2.726 7.496a326.46 326.46 0 0 1-1.435 3.729l-.931-.365c.481-1.228.958-2.467 1.431-3.717l.935.353Zm-2.924 7.456a312.603 312.603 0 0 1-1.517 3.66l-.921-.389a328.699 328.699 0 0 0 1.512-3.648l.926.377Zm-3.097 7.338a304.563 304.563 0 0 1-1.63 3.661l-.911-.413c.546-1.204 1.088-2.42 1.625-3.648l.916.4Zm-3.285 7.251a299.627 299.627 0 0 1-1.733 3.629l-.899-.437a297.658 297.658 0 0 0 1.726-3.617l.906.425Zm-3.503 7.211a303.635 303.635 0 0 1-1.799 3.52l-.888-.461c.602-1.158 1.2-2.327 1.794-3.509l.893.45Zm-3.685 7.086a275.715 275.715 0 0 1-1.907 3.487l-.874-.486a273.82 273.82 0 0 0 1.9-3.475l.881.474Zm-3.871 6.962a277.584 277.584 0 0 1-2.023 3.462l-.86-.511a275.505 275.505 0 0 0 2.016-3.449l.867.498Zm-4.062 6.84a270.127 270.127 0 0 1-2.138 3.426l-.844-.535a268.229 268.229 0 0 0 2.129-3.414l.853.523Zm-4.29 6.767a259.96 259.96 0 0 1-2.217 3.329l-.828-.56a258.08 258.08 0 0 0 2.208-3.317l.837.548Zm-4.483 6.624a260.639 260.639 0 0 1-2.299 3.237l-.811-.585a266.198 266.198 0 0 0 2.29-3.224l.82.572Zm-4.678 6.479a253.077 253.077 0 0 1-2.385 3.147l-.792-.61a251.151 251.151 0 0 0 2.376-3.135l.801.598Zm-4.874 6.327a254.233 254.233 0 0 1-2.485 3.071l-.772-.635a244.712 244.712 0 0 0 2.474-3.059l.783.623Zm-5.074 6.167a239.844 239.844 0 0 1-2.584 2.991l-.752-.66c.856-.974 1.714-1.966 2.574-2.978l.762.647Zm-5.273 5.999a236.88 236.88 0 0 1-2.678 2.897l-.728-.685c.884-.941 1.773-1.902 2.666-2.884l.74.672Zm-5.473 5.818c-.937.962-1.867 1.9-2.79 2.815l-.704-.71c.919-.911 1.845-1.845 2.777-2.802l.717.697Zm-5.67 5.619c-.98.938-1.951 1.848-2.911 2.733l-.678-.735c.956-.881 1.922-1.788 2.898-2.721l.691.723Zm-5.855 5.395a205.555 205.555 0 0 1-3.042 2.645l-.648-.761c.993-.847 2.003-1.724 3.026-2.632l.664.748Zm-6.1 5.198c-1.052.86-2.083 1.685-3.091 2.474l-.616-.787a185.041 185.041 0 0 0 3.074-2.461l.633.774Zm-6.295 4.924a160.685 160.685 0 0 1-3.244 2.362l-.578-.816a161.486 161.486 0 0 0 3.224-2.347l.598.801Zm-6.539 4.634c-.553.37-1.092.725-1.618 1.066l-.544-.839c.521-.338 1.057-.691 1.606-1.058l.556.831Zm-1.618 1.066c-.567.368-1.159.734-1.773 1.099l-.511-.86a50.766 50.766 0 0 0 1.74-1.078l.544.839Zm-5.424 3.113a100.852 100.852 0 0 1-3.742 1.829l-.421-.908a98.114 98.114 0 0 0 3.704-1.809l.459.888Zm-7.536 3.515c-1.249.533-2.531 1.06-3.84 1.581l-.37-.93a170.183 170.183 0 0 0 3.818-1.571l.392.92Zm-7.717 3.077c-1.282.481-2.582.955-3.896 1.423l-.335-.942a255.48 255.48 0 0 0 3.879-1.417l.352.936Zm-7.814 2.789c-1.305.445-2.618.884-3.934 1.315l-.311-.95c1.312-.43 2.621-.868 3.922-1.311l.323.946Zm-7.881 2.589a492.19 492.19 0 0 1-3.956 1.236l-.294-.956c1.31-.403 2.628-.815 3.948-1.233l.302.953Zm-7.924 2.443c-1.339.402-2.665.795-3.971 1.179l-.282-.959c1.304-.384 2.628-.776 3.965-1.178l.288.958Zm-7.95 2.339c-1.362.393-2.693.774-3.987 1.144l-.274-.962c1.293-.369 2.623-.75 3.983-1.143l.277.961Zm-7.972 2.278c-1.39.395-2.722.773-3.984 1.134l-.275-.962 3.986-1.134.273.962Zm-7.96 2.28c-.69.202-1.348.397-1.97.583l-.287-.957c.624-.188 1.284-.383 1.977-.586l.28.96Zm-1.97.583c-.683.206-1.337.412-1.962.618l-.313-.95a74.785 74.785 0 0 1 1.988-.625l.288.957Zm-5.67 1.981c-1.387.574-2.563 1.148-3.55 1.722l-.502-.864c1.033-.601 2.25-1.195 3.67-1.782l.382.924Zm-6.58 4.064c-.987 1.111-1.341 2.19-1.273 3.253l-.998.064c-.088-1.369.388-2.703 1.525-3.981l.747.664Zm.162 6.633c.692.947 1.599 1.91 2.654 2.889l-.68.733c-1.082-1.003-2.038-2.015-2.781-3.032l.807-.59Zm5.678 5.467c1.02.817 2.086 1.637 3.16 2.462l-.61.793a195.87 195.87 0 0 1-3.175-2.475l.625-.78Zm6.337 4.935a59.815 59.815 0 0 1 3.089 2.622l-.677.736a58.964 58.964 0 0 0-3.037-2.577l.625-.781Zm5.895 5.6c.942 1.216 1.63 2.47 1.89 3.756l-.98.198c-.219-1.079-.81-2.193-1.7-3.342l.79-.612Zm1.048 7.941a8.893 8.893 0 0 1-1.39 1.63l-.685-.729a7.894 7.894 0 0 0 1.236-1.446l.839.545Zm-1.357 1.595a16.134 16.134 0 0 1-1.556 1.549l-.656-.755a15.167 15.167 0 0 0 1.46-1.453l.752.659Zm-5.186 3.977a24.193 24.193 0 0 1-4.03 1.6l-.29-.957a23.295 23.295 0 0 0 3.865-1.533l.456.89Zm-8.235 2.579c-1.379.239-2.802.42-4.258.557l-.094-.996a53.629 53.629 0 0 0 4.18-.547l.172.986Zm-8.527.847c-1.406.065-2.832.105-4.268.135l-.02-1c1.43-.029 2.847-.07 4.242-.134l.046.999Zm-8.528.202c-1.42.019-2.839.04-4.251.075l-.025-1c1.418-.035 2.843-.056 4.262-.075l.014 1Zm-8.49.232a84.827 84.827 0 0 0-4.22.322l-.102-.995a86.296 86.296 0 0 1 4.268-.326l.053.999Zm-8.395.905a37.556 37.556 0 0 0-4.087.969l-.288-.958a38.756 38.756 0 0 1 4.196-.995l.18.984Zm-7.98 2.467c-.629.304-1.238.634-1.825.992l-.521-.853a22.12 22.12 0 0 1 1.91-1.039l.435.9Zm-1.937 1.043c-.487.151-1.041.407-1.657.773l-.51-.859c.661-.394 1.288-.688 1.87-.869l.297.955Zm-4.723 3.086a42.138 42.138 0 0 0-2.776 2.726l-.73-.682a42.973 42.973 0 0 1 2.842-2.792l.664.748Zm-5.355 5.674c-.788.955-1.59 1.98-2.404 3.07l-.801-.598a82.598 82.598 0 0 1 2.433-3.108l.772.636Zm-4.687 6.266a109.428 109.428 0 0 0-2.152 3.271l-.845-.535c.725-1.145 1.45-2.246 2.172-3.301l.825.565Zm-4.19 6.615a125.528 125.528 0 0 0-1.934 3.414l-.878-.479a125.211 125.211 0 0 1 1.95-3.441l.862.506Zm-3.764 6.888a135.89 135.89 0 0 0-1.726 3.527l-.905-.426c.57-1.211 1.151-2.396 1.74-3.554l.89.453ZM.31 427.298a136.036 136.036 0 0 0-1.516 3.616l-.928-.374a137.404 137.404 0 0 1 1.528-3.642l.916.4Zm-2.928 7.275a134.629 134.629 0 0 0-1.305 3.698l-.948-.318c.424-1.26.863-2.502 1.315-3.727l.938.347Zm-2.5 7.434c-.378 1.243-.74 2.499-1.084 3.77l-.965-.262c.347-1.28.711-2.547 1.091-3.798l.957.29Zm-2.052 7.571a124.667 124.667 0 0 0-.85 3.829l-.98-.201c.267-1.298.553-2.585.857-3.86l.973.232Zm-1.576 7.683c-.22 1.282-.42 2.573-.6 3.874l-.99-.137c.18-1.311.382-2.614.604-3.906l.986.169Zm-1.069 7.765a112.218 112.218 0 0 0-.335 3.904l-.997-.068c.09-1.321.203-2.634.337-3.939l.995.103Zm-.53 7.817c-.042 1.3-.06 2.606-.054 3.918l-1 .005c-.007-1.324.012-2.643.054-3.955l1 .032Zm.038 7.834c.028.653.062 1.307.102 1.962l-.998.062a103.07 103.07 0 0 1-.103-1.981l.999-.043Z" fill="url(#a)" />
	<defs>
		<linearGradient id="a" x1="369.361" y1="100.986" x2="-126.586" y2="385.624" gradientUnits="userSpaceOnUse">
			<stop stop-color="#0BB0B0" />
			<stop offset=".498" stop-color="#1CD7D8" />
			<stop offset="1" stop-color="#B4EFEF" />
		</linearGradient>
	</defs>
</svg>
